<mxfile host="app.diagrams.net" modified="2023-04-24T12:12:36.530Z" agent="Mozilla/5.0 (Windows NT 10.0; Win64; x64) AppleWebKit/537.36 (KHTML, like Gecko) Chrome/112.0.0.0 Safari/537.36 Edg/112.0.1722.58" etag="TkPqiGuAx8X85xnQP_Cp" version="21.2.1" type="device">
  <diagram id="C5RBs43oDa-KdzZeNtuy" name="Page-1">
    <mxGraphModel dx="1516" dy="1942" grid="1" gridSize="10" guides="1" tooltips="1" connect="1" arrows="1" fold="1" page="1" pageScale="1" pageWidth="827" pageHeight="1169" math="0" shadow="0">
      <root>
        <mxCell id="WIyWlLk6GJQsqaUBKTNV-0" />
        <mxCell id="WIyWlLk6GJQsqaUBKTNV-1" parent="WIyWlLk6GJQsqaUBKTNV-0" />
        <mxCell id="zkfFHV4jXpPFQw0GAbJ--0" value="Post&#xa;" style="swimlane;fontStyle=2;align=center;verticalAlign=top;childLayout=stackLayout;horizontal=1;startSize=26;horizontalStack=0;resizeParent=1;resizeLast=0;collapsible=1;marginBottom=0;rounded=0;shadow=0;strokeWidth=1;" parent="WIyWlLk6GJQsqaUBKTNV-1" vertex="1">
          <mxGeometry x="220" y="70" width="110" height="110" as="geometry">
            <mxRectangle x="170" y="70" width="160" height="26" as="alternateBounds" />
          </mxGeometry>
        </mxCell>
        <mxCell id="7b5bxTBQ187WUfLb2XNa-0" value="postID" style="text;align=left;verticalAlign=top;spacingLeft=4;spacingRight=4;overflow=hidden;rotatable=0;points=[[0,0.5],[1,0.5]];portConstraint=eastwest;rounded=0;shadow=0;html=0;fontStyle=4" parent="zkfFHV4jXpPFQw0GAbJ--0" vertex="1">
          <mxGeometry y="26" width="110" height="26" as="geometry" />
        </mxCell>
        <mxCell id="zkfFHV4jXpPFQw0GAbJ--3" value="content&#xa;" style="text;align=left;verticalAlign=top;spacingLeft=4;spacingRight=4;overflow=hidden;rotatable=0;points=[[0,0.5],[1,0.5]];portConstraint=eastwest;rounded=0;shadow=0;html=0;" parent="zkfFHV4jXpPFQw0GAbJ--0" vertex="1">
          <mxGeometry y="52" width="110" height="26" as="geometry" />
        </mxCell>
        <mxCell id="zkfFHV4jXpPFQw0GAbJ--1" value="title&#xa;" style="text;align=left;verticalAlign=top;spacingLeft=4;spacingRight=4;overflow=hidden;rotatable=0;points=[[0,0.5],[1,0.5]];portConstraint=eastwest;" parent="zkfFHV4jXpPFQw0GAbJ--0" vertex="1">
          <mxGeometry y="78" width="110" height="28" as="geometry" />
        </mxCell>
        <mxCell id="7b5bxTBQ187WUfLb2XNa-2" value="Post_Detail" style="swimlane;fontStyle=0;align=center;verticalAlign=top;childLayout=stackLayout;horizontal=1;startSize=26;horizontalStack=0;resizeParent=1;resizeLast=0;collapsible=1;marginBottom=0;rounded=0;shadow=0;strokeWidth=1;" parent="WIyWlLk6GJQsqaUBKTNV-1" vertex="1">
          <mxGeometry x="226.26" y="-200" width="97.49" height="130" as="geometry">
            <mxRectangle x="550" y="140" width="160" height="26" as="alternateBounds" />
          </mxGeometry>
        </mxCell>
        <mxCell id="7b5bxTBQ187WUfLb2XNa-3" value="postID" style="text;align=left;verticalAlign=top;spacingLeft=4;spacingRight=4;overflow=hidden;rotatable=0;points=[[0,0.5],[1,0.5]];portConstraint=eastwest;fontStyle=4" parent="7b5bxTBQ187WUfLb2XNa-2" vertex="1">
          <mxGeometry y="26" width="97.49" height="26" as="geometry" />
        </mxCell>
        <mxCell id="7b5bxTBQ187WUfLb2XNa-4" value="postTime" style="text;align=left;verticalAlign=top;spacingLeft=4;spacingRight=4;overflow=hidden;rotatable=0;points=[[0,0.5],[1,0.5]];portConstraint=eastwest;rounded=0;shadow=0;html=0;" parent="7b5bxTBQ187WUfLb2XNa-2" vertex="1">
          <mxGeometry y="52" width="97.49" height="26" as="geometry" />
        </mxCell>
        <mxCell id="7b5bxTBQ187WUfLb2XNa-5" value="postCity" style="text;align=left;verticalAlign=top;spacingLeft=4;spacingRight=4;overflow=hidden;rotatable=0;points=[[0,0.5],[1,0.5]];portConstraint=eastwest;rounded=0;shadow=0;html=0;" parent="7b5bxTBQ187WUfLb2XNa-2" vertex="1">
          <mxGeometry y="78" width="97.49" height="26" as="geometry" />
        </mxCell>
        <mxCell id="BVXQ5DlHGLkS4K23p-El-0" value="postCountry" style="text;align=left;verticalAlign=top;spacingLeft=4;spacingRight=4;overflow=hidden;rotatable=0;points=[[0,0.5],[1,0.5]];portConstraint=eastwest;rounded=0;shadow=0;html=0;" vertex="1" parent="7b5bxTBQ187WUfLb2XNa-2">
          <mxGeometry y="104" width="97.49" height="26" as="geometry" />
        </mxCell>
        <mxCell id="7b5bxTBQ187WUfLb2XNa-12" value="Author" style="swimlane;fontStyle=0;align=center;verticalAlign=top;childLayout=stackLayout;horizontal=1;startSize=26;horizontalStack=0;resizeParent=1;resizeLast=0;collapsible=1;marginBottom=0;rounded=0;shadow=0;strokeWidth=1;" parent="WIyWlLk6GJQsqaUBKTNV-1" vertex="1">
          <mxGeometry x="-160" y="70" width="140" height="140" as="geometry">
            <mxRectangle x="550" y="140" width="160" height="26" as="alternateBounds" />
          </mxGeometry>
        </mxCell>
        <mxCell id="7b5bxTBQ187WUfLb2XNa-13" value="authorID" style="text;align=left;verticalAlign=top;spacingLeft=4;spacingRight=4;overflow=hidden;rotatable=0;points=[[0,0.5],[1,0.5]];portConstraint=eastwest;fontStyle=4" parent="7b5bxTBQ187WUfLb2XNa-12" vertex="1">
          <mxGeometry y="26" width="140" height="26" as="geometry" />
        </mxCell>
        <mxCell id="7b5bxTBQ187WUfLb2XNa-14" value="phone" style="text;align=left;verticalAlign=top;spacingLeft=4;spacingRight=4;overflow=hidden;rotatable=0;points=[[0,0.5],[1,0.5]];portConstraint=eastwest;rounded=0;shadow=0;html=0;" parent="7b5bxTBQ187WUfLb2XNa-12" vertex="1">
          <mxGeometry y="52" width="140" height="28" as="geometry" />
        </mxCell>
        <mxCell id="7b5bxTBQ187WUfLb2XNa-15" value="authorName" style="text;align=left;verticalAlign=top;spacingLeft=4;spacingRight=4;overflow=hidden;rotatable=0;points=[[0,0.5],[1,0.5]];portConstraint=eastwest;rounded=0;shadow=0;html=0;" parent="7b5bxTBQ187WUfLb2XNa-12" vertex="1">
          <mxGeometry y="80" width="140" height="26" as="geometry" />
        </mxCell>
        <mxCell id="7b5bxTBQ187WUfLb2XNa-16" value="registractionTime" style="text;align=left;verticalAlign=top;spacingLeft=4;spacingRight=4;overflow=hidden;rotatable=0;points=[[0,0.5],[1,0.5]];portConstraint=eastwest;rounded=0;shadow=0;html=0;" parent="7b5bxTBQ187WUfLb2XNa-12" vertex="1">
          <mxGeometry y="106" width="140" height="26" as="geometry" />
        </mxCell>
        <mxCell id="7b5bxTBQ187WUfLb2XNa-30" value="First_Reply" style="swimlane;fontStyle=0;align=center;verticalAlign=top;childLayout=stackLayout;horizontal=1;startSize=26;horizontalStack=0;resizeParent=1;resizeLast=0;collapsible=1;marginBottom=0;rounded=0;shadow=0;strokeWidth=1;" parent="WIyWlLk6GJQsqaUBKTNV-1" vertex="1">
          <mxGeometry x="230" y="330" width="90" height="139" as="geometry">
            <mxRectangle x="230" y="140" width="160" height="26" as="alternateBounds" />
          </mxGeometry>
        </mxCell>
        <mxCell id="7b5bxTBQ187WUfLb2XNa-31" value="firstID" style="text;align=left;verticalAlign=top;spacingLeft=4;spacingRight=4;overflow=hidden;rotatable=0;points=[[0,0.5],[1,0.5]];portConstraint=eastwest;rounded=0;shadow=0;html=0;fontStyle=4" parent="7b5bxTBQ187WUfLb2XNa-30" vertex="1">
          <mxGeometry y="26" width="90" height="26" as="geometry" />
        </mxCell>
        <mxCell id="7b5bxTBQ187WUfLb2XNa-32" value="firstContent" style="text;align=left;verticalAlign=top;spacingLeft=4;spacingRight=4;overflow=hidden;rotatable=0;points=[[0,0.5],[1,0.5]];portConstraint=eastwest;rounded=0;shadow=0;html=0;" parent="7b5bxTBQ187WUfLb2XNa-30" vertex="1">
          <mxGeometry y="52" width="90" height="28" as="geometry" />
        </mxCell>
        <mxCell id="7b5bxTBQ187WUfLb2XNa-33" value="firstStars" style="text;align=left;verticalAlign=top;spacingLeft=4;spacingRight=4;overflow=hidden;rotatable=0;points=[[0,0.5],[1,0.5]];portConstraint=eastwest;" parent="7b5bxTBQ187WUfLb2XNa-30" vertex="1">
          <mxGeometry y="80" width="90" height="28" as="geometry" />
        </mxCell>
        <mxCell id="7b5bxTBQ187WUfLb2XNa-34" value="firstAuthor" style="text;align=left;verticalAlign=top;spacingLeft=4;spacingRight=4;overflow=hidden;rotatable=0;points=[[0,0.5],[1,0.5]];portConstraint=eastwest;rounded=0;shadow=0;html=0;" parent="7b5bxTBQ187WUfLb2XNa-30" vertex="1">
          <mxGeometry y="108" width="90" height="26" as="geometry" />
        </mxCell>
        <mxCell id="pQImlsFSsEBteBRKNSg0-4" value="Favorite_Post" style="rhombus;whiteSpace=wrap;html=1;fontSize=16;" parent="WIyWlLk6GJQsqaUBKTNV-1" vertex="1">
          <mxGeometry x="390" y="-18" width="133" height="36" as="geometry" />
        </mxCell>
        <mxCell id="pQImlsFSsEBteBRKNSg0-9" value="" style="endArrow=none;html=1;rounded=0;fontSize=12;startSize=8;endSize=8;curved=1;entryX=0;entryY=0.5;entryDx=0;entryDy=0;exitX=1;exitY=0.5;exitDx=0;exitDy=0;" parent="WIyWlLk6GJQsqaUBKTNV-1" source="zkfFHV4jXpPFQw0GAbJ--3" target="pQImlsFSsEBteBRKNSg0-4" edge="1">
          <mxGeometry width="50" height="50" relative="1" as="geometry">
            <mxPoint x="350" y="330" as="sourcePoint" />
            <mxPoint x="400" y="280" as="targetPoint" />
          </mxGeometry>
        </mxCell>
        <mxCell id="jRoIo9WmsGHraCPld5z3-4" value="post_detail" style="rhombus;whiteSpace=wrap;html=1;fontSize=16;" parent="WIyWlLk6GJQsqaUBKTNV-1" vertex="1">
          <mxGeometry x="206.51" y="-30" width="137" height="60" as="geometry" />
        </mxCell>
        <mxCell id="jRoIo9WmsGHraCPld5z3-6" value="" style="endArrow=none;html=1;rounded=0;fontSize=12;startSize=8;endSize=8;curved=1;entryX=0.5;entryY=1;entryDx=0;entryDy=0;exitX=0.5;exitY=0;exitDx=0;exitDy=0;" parent="WIyWlLk6GJQsqaUBKTNV-1" source="jRoIo9WmsGHraCPld5z3-4" target="7b5bxTBQ187WUfLb2XNa-2" edge="1">
          <mxGeometry width="50" height="50" relative="1" as="geometry">
            <mxPoint x="310" y="-50" as="sourcePoint" />
            <mxPoint x="360" y="-100" as="targetPoint" />
          </mxGeometry>
        </mxCell>
        <mxCell id="jRoIo9WmsGHraCPld5z3-7" value="" style="endArrow=none;html=1;rounded=0;fontSize=12;startSize=8;endSize=8;curved=1;entryX=0.5;entryY=1;entryDx=0;entryDy=0;exitX=0.5;exitY=0;exitDx=0;exitDy=0;" parent="WIyWlLk6GJQsqaUBKTNV-1" source="zkfFHV4jXpPFQw0GAbJ--0" target="jRoIo9WmsGHraCPld5z3-4" edge="1">
          <mxGeometry width="50" height="50" relative="1" as="geometry">
            <mxPoint x="310" y="-50" as="sourcePoint" />
            <mxPoint x="360" y="-100" as="targetPoint" />
          </mxGeometry>
        </mxCell>
        <mxCell id="jRoIo9WmsGHraCPld5z3-8" value="author_info" style="rhombus;whiteSpace=wrap;html=1;fontSize=16;" parent="WIyWlLk6GJQsqaUBKTNV-1" vertex="1">
          <mxGeometry x="26.489999999999995" y="102.5" width="150" height="65" as="geometry" />
        </mxCell>
        <mxCell id="jRoIo9WmsGHraCPld5z3-11" value="post_reply&amp;nbsp;" style="rhombus;whiteSpace=wrap;html=1;fontSize=16;" parent="WIyWlLk6GJQsqaUBKTNV-1" vertex="1">
          <mxGeometry x="213.13" y="230" width="123.75" height="60" as="geometry" />
        </mxCell>
        <mxCell id="jRoIo9WmsGHraCPld5z3-12" value="" style="endArrow=none;html=1;rounded=0;fontSize=12;startSize=8;endSize=8;curved=1;exitX=0.5;exitY=0;exitDx=0;exitDy=0;entryX=0.5;entryY=1;entryDx=0;entryDy=0;" parent="WIyWlLk6GJQsqaUBKTNV-1" source="jRoIo9WmsGHraCPld5z3-11" target="zkfFHV4jXpPFQw0GAbJ--0" edge="1">
          <mxGeometry width="50" height="50" relative="1" as="geometry">
            <mxPoint x="-30" y="340" as="sourcePoint" />
            <mxPoint x="230" y="200" as="targetPoint" />
          </mxGeometry>
        </mxCell>
        <mxCell id="jRoIo9WmsGHraCPld5z3-13" value="" style="endArrow=none;html=1;rounded=0;fontSize=12;startSize=8;endSize=8;curved=1;entryX=0.5;entryY=1;entryDx=0;entryDy=0;exitX=0.5;exitY=0;exitDx=0;exitDy=0;" parent="WIyWlLk6GJQsqaUBKTNV-1" source="7b5bxTBQ187WUfLb2XNa-30" target="jRoIo9WmsGHraCPld5z3-11" edge="1">
          <mxGeometry width="50" height="50" relative="1" as="geometry">
            <mxPoint x="-90" y="125" as="sourcePoint" />
            <mxPoint x="20" y="290" as="targetPoint" />
            <Array as="points" />
          </mxGeometry>
        </mxCell>
        <mxCell id="MncGQHJ-3_Vgf6a1yB7t-2" value="" style="endArrow=none;html=1;rounded=0;exitX=1;exitY=0.5;exitDx=0;exitDy=0;entryX=0;entryY=0.5;entryDx=0;entryDy=0;" parent="WIyWlLk6GJQsqaUBKTNV-1" source="jRoIo9WmsGHraCPld5z3-8" target="zkfFHV4jXpPFQw0GAbJ--3" edge="1">
          <mxGeometry width="50" height="50" relative="1" as="geometry">
            <mxPoint x="410" y="180" as="sourcePoint" />
            <mxPoint x="460" y="130" as="targetPoint" />
          </mxGeometry>
        </mxCell>
        <mxCell id="MncGQHJ-3_Vgf6a1yB7t-3" value="" style="endArrow=none;html=1;rounded=0;exitX=1;exitY=0.5;exitDx=0;exitDy=0;entryX=0;entryY=0.5;entryDx=0;entryDy=0;" parent="WIyWlLk6GJQsqaUBKTNV-1" source="7b5bxTBQ187WUfLb2XNa-14" target="jRoIo9WmsGHraCPld5z3-8" edge="1">
          <mxGeometry width="50" height="50" relative="1" as="geometry">
            <mxPoint x="410" y="180" as="sourcePoint" />
            <mxPoint x="460" y="130" as="targetPoint" />
          </mxGeometry>
        </mxCell>
        <mxCell id="PRiovcdTmzTmVOK_WKT8-30" value="" style="edgeStyle=orthogonalEdgeStyle;rounded=0;orthogonalLoop=1;jettySize=auto;html=1;" parent="WIyWlLk6GJQsqaUBKTNV-1" source="7yfGMCTPpfERg5BzqTi5-1" target="7b5bxTBQ187WUfLb2XNa-33" edge="1">
          <mxGeometry relative="1" as="geometry" />
        </mxCell>
        <mxCell id="7yfGMCTPpfERg5BzqTi5-1" value="After_First_Reply" style="shape=rhombus;double=1;perimeter=rhombusPerimeter;whiteSpace=wrap;html=1;align=center;" parent="WIyWlLk6GJQsqaUBKTNV-1" vertex="1">
          <mxGeometry x="41.49" y="393" width="120" height="60" as="geometry" />
        </mxCell>
        <mxCell id="7yfGMCTPpfERg5BzqTi5-12" value="" style="shape=ext;margin=3;double=1;whiteSpace=wrap;html=1;align=center;" parent="WIyWlLk6GJQsqaUBKTNV-1" vertex="1">
          <mxGeometry x="-140" y="330" width="125" height="160" as="geometry" />
        </mxCell>
        <mxCell id="jRoIo9WmsGHraCPld5z3-18" value="secondContent" style="text;align=left;verticalAlign=top;spacingLeft=4;spacingRight=4;overflow=hidden;rotatable=0;points=[[0,0.5],[1,0.5]];portConstraint=eastwest;rounded=0;shadow=0;html=0;" parent="WIyWlLk6GJQsqaUBKTNV-1" vertex="1">
          <mxGeometry x="-130" y="409" width="110" height="28" as="geometry" />
        </mxCell>
        <mxCell id="jRoIo9WmsGHraCPld5z3-16" value="secondAuthor" style="text;align=left;verticalAlign=top;spacingLeft=4;spacingRight=4;overflow=hidden;rotatable=0;points=[[0,0.5],[1,0.5]];portConstraint=eastwest;rounded=0;shadow=0;html=0;" parent="WIyWlLk6GJQsqaUBKTNV-1" vertex="1">
          <mxGeometry x="-130" y="428" width="110" height="27" as="geometry" />
        </mxCell>
        <mxCell id="MncGQHJ-3_Vgf6a1yB7t-5" value="secondid" style="text;align=left;verticalAlign=top;spacingLeft=4;spacingRight=4;overflow=hidden;rotatable=0;points=[[0,0.5],[1,0.5]];portConstraint=eastwest;rounded=0;shadow=0;html=0;fontStyle=4" parent="WIyWlLk6GJQsqaUBKTNV-1" vertex="1">
          <mxGeometry x="-130" y="367" width="110" height="26" as="geometry" />
        </mxCell>
        <mxCell id="7yfGMCTPpfERg5BzqTi5-15" value="secondStar" style="text;align=left;verticalAlign=top;spacingLeft=4;spacingRight=4;overflow=hidden;rotatable=0;points=[[0,0.5],[1,0.5]];portConstraint=eastwest;rounded=0;shadow=0;html=0;" parent="WIyWlLk6GJQsqaUBKTNV-1" vertex="1">
          <mxGeometry x="-130" y="385.5" width="110" height="28" as="geometry" />
        </mxCell>
        <mxCell id="7yfGMCTPpfERg5BzqTi5-16" value="Second_Reply" style="text;align=left;verticalAlign=top;spacingLeft=4;spacingRight=4;overflow=hidden;rotatable=0;points=[[0,0.5],[1,0.5]];portConstraint=eastwest;rounded=0;shadow=0;html=0;" parent="WIyWlLk6GJQsqaUBKTNV-1" vertex="1">
          <mxGeometry x="-122.5" y="340" width="90" height="28" as="geometry" />
        </mxCell>
        <mxCell id="7yfGMCTPpfERg5BzqTi5-17" value="" style="endArrow=none;html=1;rounded=0;entryX=0.015;entryY=0.204;entryDx=0;entryDy=0;entryPerimeter=0;" parent="WIyWlLk6GJQsqaUBKTNV-1" target="7yfGMCTPpfERg5BzqTi5-12" edge="1">
          <mxGeometry width="50" height="50" relative="1" as="geometry">
            <mxPoint x="-20" y="363" as="sourcePoint" />
            <mxPoint x="-345" y="220" as="targetPoint" />
          </mxGeometry>
        </mxCell>
        <mxCell id="7yfGMCTPpfERg5BzqTi5-18" value="" style="shape=link;html=1;rounded=0;exitX=0;exitY=0.5;exitDx=0;exitDy=0;entryX=1;entryY=0.5;entryDx=0;entryDy=0;" parent="WIyWlLk6GJQsqaUBKTNV-1" source="7yfGMCTPpfERg5BzqTi5-1" target="jRoIo9WmsGHraCPld5z3-18" edge="1">
          <mxGeometry relative="1" as="geometry">
            <mxPoint x="60" y="396" as="sourcePoint" />
            <mxPoint x="20" y="396" as="targetPoint" />
          </mxGeometry>
        </mxCell>
        <mxCell id="7yfGMCTPpfERg5BzqTi5-21" value="1..1" style="text;html=1;align=center;verticalAlign=middle;resizable=0;points=[];autosize=1;strokeColor=none;fillColor=none;" parent="WIyWlLk6GJQsqaUBKTNV-1" vertex="1">
          <mxGeometry x="180" y="110" width="40" height="30" as="geometry" />
        </mxCell>
        <mxCell id="7yfGMCTPpfERg5BzqTi5-22" value="1..*" style="text;html=1;align=center;verticalAlign=middle;resizable=0;points=[];autosize=1;strokeColor=none;fillColor=none;" parent="WIyWlLk6GJQsqaUBKTNV-1" vertex="1">
          <mxGeometry x="-20" y="110" width="40" height="30" as="geometry" />
        </mxCell>
        <mxCell id="7yfGMCTPpfERg5BzqTi5-24" value="1..*" style="text;html=1;align=center;verticalAlign=middle;resizable=0;points=[];autosize=1;strokeColor=none;fillColor=none;" parent="WIyWlLk6GJQsqaUBKTNV-1" vertex="1">
          <mxGeometry x="380" y="10" width="40" height="30" as="geometry" />
        </mxCell>
        <mxCell id="7yfGMCTPpfERg5BzqTi5-25" value="1..1" style="text;html=1;align=center;verticalAlign=middle;resizable=0;points=[];autosize=1;strokeColor=none;fillColor=none;" parent="WIyWlLk6GJQsqaUBKTNV-1" vertex="1">
          <mxGeometry x="240" y="40" width="40" height="30" as="geometry" />
        </mxCell>
        <mxCell id="7yfGMCTPpfERg5BzqTi5-26" value="1..1" style="text;html=1;align=center;verticalAlign=middle;resizable=0;points=[];autosize=1;strokeColor=none;fillColor=none;" parent="WIyWlLk6GJQsqaUBKTNV-1" vertex="1">
          <mxGeometry x="240" y="-76" width="40" height="30" as="geometry" />
        </mxCell>
        <mxCell id="7yfGMCTPpfERg5BzqTi5-27" value="1..*" style="text;html=1;align=center;verticalAlign=middle;resizable=0;points=[];autosize=1;strokeColor=none;fillColor=none;" parent="WIyWlLk6GJQsqaUBKTNV-1" vertex="1">
          <mxGeometry x="240" y="189" width="40" height="30" as="geometry" />
        </mxCell>
        <mxCell id="7yfGMCTPpfERg5BzqTi5-28" value="1..1" style="text;html=1;align=center;verticalAlign=middle;resizable=0;points=[];autosize=1;strokeColor=none;fillColor=none;" parent="WIyWlLk6GJQsqaUBKTNV-1" vertex="1">
          <mxGeometry x="240" y="300" width="40" height="30" as="geometry" />
        </mxCell>
        <mxCell id="7yfGMCTPpfERg5BzqTi5-29" value="0..*" style="text;html=1;align=center;verticalAlign=middle;resizable=0;points=[];autosize=1;strokeColor=none;fillColor=none;" parent="WIyWlLk6GJQsqaUBKTNV-1" vertex="1">
          <mxGeometry x="170" y="398" width="40" height="30" as="geometry" />
        </mxCell>
        <mxCell id="7yfGMCTPpfERg5BzqTi5-30" value="1..1" style="text;html=1;align=center;verticalAlign=middle;resizable=0;points=[];autosize=1;strokeColor=none;fillColor=none;" parent="WIyWlLk6GJQsqaUBKTNV-1" vertex="1">
          <mxGeometry x="-20" y="393" width="40" height="30" as="geometry" />
        </mxCell>
        <mxCell id="qeKMyD4Od0ZFjjSn9PqW-0" value="Share_Post" style="swimlane;fontStyle=0;align=center;verticalAlign=top;childLayout=stackLayout;horizontal=1;startSize=26;horizontalStack=0;resizeParent=1;resizeLast=0;collapsible=1;marginBottom=0;rounded=0;shadow=0;strokeWidth=1;" parent="WIyWlLk6GJQsqaUBKTNV-1" vertex="1">
          <mxGeometry x="570" y="54" width="90" height="86" as="geometry">
            <mxRectangle x="550" y="140" width="160" height="26" as="alternateBounds" />
          </mxGeometry>
        </mxCell>
        <mxCell id="PRiovcdTmzTmVOK_WKT8-26" value="shareID" style="text;align=left;verticalAlign=top;spacingLeft=4;spacingRight=4;overflow=hidden;rotatable=0;points=[[0,0.5],[1,0.5]];portConstraint=eastwest;fontStyle=4" parent="qeKMyD4Od0ZFjjSn9PqW-0" vertex="1">
          <mxGeometry y="26" width="90" height="26" as="geometry" />
        </mxCell>
        <mxCell id="qeKMyD4Od0ZFjjSn9PqW-4" value="share" style="text;align=left;verticalAlign=top;spacingLeft=4;spacingRight=4;overflow=hidden;rotatable=0;points=[[0,0.5],[1,0.5]];portConstraint=eastwest;rounded=0;shadow=0;html=0;" parent="qeKMyD4Od0ZFjjSn9PqW-0" vertex="1">
          <mxGeometry y="52" width="90" height="26" as="geometry" />
        </mxCell>
        <mxCell id="qeKMyD4Od0ZFjjSn9PqW-6" value="Favorite_Post" style="swimlane;fontStyle=0;align=center;verticalAlign=top;childLayout=stackLayout;horizontal=1;startSize=26;horizontalStack=0;resizeParent=1;resizeLast=0;collapsible=1;marginBottom=0;rounded=0;shadow=0;strokeWidth=1;" parent="WIyWlLk6GJQsqaUBKTNV-1" vertex="1">
          <mxGeometry x="570" y="-40" width="90" height="84" as="geometry">
            <mxRectangle x="550" y="140" width="160" height="26" as="alternateBounds" />
          </mxGeometry>
        </mxCell>
        <mxCell id="qeKMyD4Od0ZFjjSn9PqW-7" value="favoriteID" style="text;align=left;verticalAlign=top;spacingLeft=4;spacingRight=4;overflow=hidden;rotatable=0;points=[[0,0.5],[1,0.5]];portConstraint=eastwest;fontStyle=4" parent="qeKMyD4Od0ZFjjSn9PqW-6" vertex="1">
          <mxGeometry y="26" width="90" height="26" as="geometry" />
        </mxCell>
        <mxCell id="qeKMyD4Od0ZFjjSn9PqW-9" value="favorite" style="text;align=left;verticalAlign=top;spacingLeft=4;spacingRight=4;overflow=hidden;rotatable=0;points=[[0,0.5],[1,0.5]];portConstraint=eastwest;rounded=0;shadow=0;html=0;" parent="qeKMyD4Od0ZFjjSn9PqW-6" vertex="1">
          <mxGeometry y="52" width="90" height="32" as="geometry" />
        </mxCell>
        <mxCell id="qeKMyD4Od0ZFjjSn9PqW-12" value="Followed_By" style="swimlane;fontStyle=0;align=center;verticalAlign=top;childLayout=stackLayout;horizontal=1;startSize=26;horizontalStack=0;resizeParent=1;resizeLast=0;collapsible=1;marginBottom=0;rounded=0;shadow=0;strokeWidth=1;" parent="WIyWlLk6GJQsqaUBKTNV-1" vertex="1">
          <mxGeometry x="-152.5" y="-160" width="125" height="84" as="geometry">
            <mxRectangle x="550" y="140" width="160" height="26" as="alternateBounds" />
          </mxGeometry>
        </mxCell>
        <mxCell id="qeKMyD4Od0ZFjjSn9PqW-13" value="followedbyID" style="text;align=left;verticalAlign=top;spacingLeft=4;spacingRight=4;overflow=hidden;rotatable=0;points=[[0,0.5],[1,0.5]];portConstraint=eastwest;fontStyle=4" parent="qeKMyD4Od0ZFjjSn9PqW-12" vertex="1">
          <mxGeometry y="26" width="125" height="26" as="geometry" />
        </mxCell>
        <mxCell id="qeKMyD4Od0ZFjjSn9PqW-14" value="follow" style="text;align=left;verticalAlign=top;spacingLeft=4;spacingRight=4;overflow=hidden;rotatable=0;points=[[0,0.5],[1,0.5]];portConstraint=eastwest;rounded=0;shadow=0;html=0;" parent="qeKMyD4Od0ZFjjSn9PqW-12" vertex="1">
          <mxGeometry y="52" width="125" height="26" as="geometry" />
        </mxCell>
        <mxCell id="qeKMyD4Od0ZFjjSn9PqW-18" value="Categories" style="swimlane;fontStyle=0;align=center;verticalAlign=top;childLayout=stackLayout;horizontal=1;startSize=26;horizontalStack=0;resizeParent=1;resizeLast=0;collapsible=1;marginBottom=0;rounded=0;shadow=0;strokeWidth=1;" parent="WIyWlLk6GJQsqaUBKTNV-1" vertex="1">
          <mxGeometry x="570" y="240" width="90" height="81" as="geometry">
            <mxRectangle x="550" y="140" width="160" height="26" as="alternateBounds" />
          </mxGeometry>
        </mxCell>
        <mxCell id="PRiovcdTmzTmVOK_WKT8-28" value="categoryID" style="text;align=left;verticalAlign=top;spacingLeft=4;spacingRight=4;overflow=hidden;rotatable=0;points=[[0,0.5],[1,0.5]];portConstraint=eastwest;fontStyle=4" parent="qeKMyD4Od0ZFjjSn9PqW-18" vertex="1">
          <mxGeometry y="26" width="90" height="26" as="geometry" />
        </mxCell>
        <mxCell id="qeKMyD4Od0ZFjjSn9PqW-20" value="category" style="text;align=left;verticalAlign=top;spacingLeft=4;spacingRight=4;overflow=hidden;rotatable=0;points=[[0,0.5],[1,0.5]];portConstraint=eastwest;rounded=0;shadow=0;html=0;" parent="qeKMyD4Od0ZFjjSn9PqW-18" vertex="1">
          <mxGeometry y="52" width="90" height="26" as="geometry" />
        </mxCell>
        <mxCell id="PRiovcdTmzTmVOK_WKT8-0" value="Like_Post" style="swimlane;fontStyle=0;align=center;verticalAlign=top;childLayout=stackLayout;horizontal=1;startSize=26;horizontalStack=0;resizeParent=1;resizeLast=0;collapsible=1;marginBottom=0;rounded=0;shadow=0;strokeWidth=1;" parent="WIyWlLk6GJQsqaUBKTNV-1" vertex="1">
          <mxGeometry x="570" y="146" width="90" height="84" as="geometry">
            <mxRectangle x="550" y="140" width="160" height="26" as="alternateBounds" />
          </mxGeometry>
        </mxCell>
        <mxCell id="PRiovcdTmzTmVOK_WKT8-27" value="likeID" style="text;align=left;verticalAlign=top;spacingLeft=4;spacingRight=4;overflow=hidden;rotatable=0;points=[[0,0.5],[1,0.5]];portConstraint=eastwest;fontStyle=4" parent="PRiovcdTmzTmVOK_WKT8-0" vertex="1">
          <mxGeometry y="26" width="90" height="26" as="geometry" />
        </mxCell>
        <mxCell id="PRiovcdTmzTmVOK_WKT8-5" value="liked" style="text;align=left;verticalAlign=top;spacingLeft=4;spacingRight=4;overflow=hidden;rotatable=0;points=[[0,0.5],[1,0.5]];portConstraint=eastwest;rounded=0;shadow=0;html=0;" parent="PRiovcdTmzTmVOK_WKT8-0" vertex="1">
          <mxGeometry y="52" width="90" height="26" as="geometry" />
        </mxCell>
        <mxCell id="PRiovcdTmzTmVOK_WKT8-10" value="Author_Follow_poster" style="shape=rhombus;perimeter=rhombusPerimeter;whiteSpace=wrap;html=1;align=center;" parent="WIyWlLk6GJQsqaUBKTNV-1" vertex="1">
          <mxGeometry x="-165" y="-24.5" width="150" height="49" as="geometry" />
        </mxCell>
        <mxCell id="PRiovcdTmzTmVOK_WKT8-11" value="" style="endArrow=none;html=1;rounded=0;entryX=0.5;entryY=0;entryDx=0;entryDy=0;exitX=0.5;exitY=1;exitDx=0;exitDy=0;" parent="WIyWlLk6GJQsqaUBKTNV-1" source="qeKMyD4Od0ZFjjSn9PqW-12" target="PRiovcdTmzTmVOK_WKT8-10" edge="1">
          <mxGeometry relative="1" as="geometry">
            <mxPoint x="-90" y="360" as="sourcePoint" />
            <mxPoint x="120" y="240" as="targetPoint" />
          </mxGeometry>
        </mxCell>
        <mxCell id="PRiovcdTmzTmVOK_WKT8-13" value="" style="endArrow=none;html=1;rounded=0;exitX=0.5;exitY=0;exitDx=0;exitDy=0;entryX=0.5;entryY=1;entryDx=0;entryDy=0;" parent="WIyWlLk6GJQsqaUBKTNV-1" source="7b5bxTBQ187WUfLb2XNa-12" target="PRiovcdTmzTmVOK_WKT8-10" edge="1">
          <mxGeometry relative="1" as="geometry">
            <mxPoint x="-40" y="240" as="sourcePoint" />
            <mxPoint x="120" y="240" as="targetPoint" />
          </mxGeometry>
        </mxCell>
        <mxCell id="PRiovcdTmzTmVOK_WKT8-15" value="Share_Post" style="rhombus;whiteSpace=wrap;html=1;fontSize=16;" parent="WIyWlLk6GJQsqaUBKTNV-1" vertex="1">
          <mxGeometry x="390" y="74" width="133" height="36" as="geometry" />
        </mxCell>
        <mxCell id="PRiovcdTmzTmVOK_WKT8-16" value="Like_Post" style="rhombus;whiteSpace=wrap;html=1;fontSize=16;" parent="WIyWlLk6GJQsqaUBKTNV-1" vertex="1">
          <mxGeometry x="390" y="167.5" width="133" height="36" as="geometry" />
        </mxCell>
        <mxCell id="PRiovcdTmzTmVOK_WKT8-17" value="Post_Category" style="rhombus;whiteSpace=wrap;html=1;fontSize=16;" parent="WIyWlLk6GJQsqaUBKTNV-1" vertex="1">
          <mxGeometry x="390" y="261" width="133" height="36" as="geometry" />
        </mxCell>
        <mxCell id="PRiovcdTmzTmVOK_WKT8-19" value="" style="endArrow=none;html=1;rounded=0;exitX=1;exitY=0.5;exitDx=0;exitDy=0;entryX=0;entryY=0.5;entryDx=0;entryDy=0;" parent="WIyWlLk6GJQsqaUBKTNV-1" source="PRiovcdTmzTmVOK_WKT8-16" target="PRiovcdTmzTmVOK_WKT8-27" edge="1">
          <mxGeometry relative="1" as="geometry">
            <mxPoint x="410" y="50" as="sourcePoint" />
            <mxPoint x="560" y="121" as="targetPoint" />
          </mxGeometry>
        </mxCell>
        <mxCell id="PRiovcdTmzTmVOK_WKT8-20" value="" style="endArrow=none;html=1;rounded=0;exitX=1;exitY=0.5;exitDx=0;exitDy=0;entryX=0;entryY=0.5;entryDx=0;entryDy=0;" parent="WIyWlLk6GJQsqaUBKTNV-1" source="PRiovcdTmzTmVOK_WKT8-15" target="PRiovcdTmzTmVOK_WKT8-26" edge="1">
          <mxGeometry relative="1" as="geometry">
            <mxPoint x="410" y="50" as="sourcePoint" />
            <mxPoint x="565" y="-11" as="targetPoint" />
          </mxGeometry>
        </mxCell>
        <mxCell id="PRiovcdTmzTmVOK_WKT8-21" value="" style="endArrow=none;html=1;rounded=0;exitX=1;exitY=0.5;exitDx=0;exitDy=0;entryX=0;entryY=0.5;entryDx=0;entryDy=0;" parent="WIyWlLk6GJQsqaUBKTNV-1" source="pQImlsFSsEBteBRKNSg0-4" target="qeKMyD4Od0ZFjjSn9PqW-7" edge="1">
          <mxGeometry relative="1" as="geometry">
            <mxPoint x="410" y="50" as="sourcePoint" />
            <mxPoint x="570" y="50" as="targetPoint" />
          </mxGeometry>
        </mxCell>
        <mxCell id="PRiovcdTmzTmVOK_WKT8-22" value="" style="endArrow=none;html=1;rounded=0;exitX=1;exitY=0.5;exitDx=0;exitDy=0;entryX=0;entryY=0.5;entryDx=0;entryDy=0;" parent="WIyWlLk6GJQsqaUBKTNV-1" source="zkfFHV4jXpPFQw0GAbJ--3" target="PRiovcdTmzTmVOK_WKT8-17" edge="1">
          <mxGeometry relative="1" as="geometry">
            <mxPoint x="410" y="120" as="sourcePoint" />
            <mxPoint x="570" y="120" as="targetPoint" />
          </mxGeometry>
        </mxCell>
        <mxCell id="PRiovcdTmzTmVOK_WKT8-23" value="" style="endArrow=none;html=1;rounded=0;exitX=1;exitY=0.5;exitDx=0;exitDy=0;entryX=0;entryY=0.5;entryDx=0;entryDy=0;" parent="WIyWlLk6GJQsqaUBKTNV-1" source="zkfFHV4jXpPFQw0GAbJ--3" target="PRiovcdTmzTmVOK_WKT8-16" edge="1">
          <mxGeometry relative="1" as="geometry">
            <mxPoint x="410" y="120" as="sourcePoint" />
            <mxPoint x="570" y="120" as="targetPoint" />
          </mxGeometry>
        </mxCell>
        <mxCell id="PRiovcdTmzTmVOK_WKT8-24" value="" style="endArrow=none;html=1;rounded=0;exitX=1;exitY=0.5;exitDx=0;exitDy=0;entryX=0;entryY=0.5;entryDx=0;entryDy=0;" parent="WIyWlLk6GJQsqaUBKTNV-1" source="zkfFHV4jXpPFQw0GAbJ--3" target="PRiovcdTmzTmVOK_WKT8-15" edge="1">
          <mxGeometry relative="1" as="geometry">
            <mxPoint x="410" y="120" as="sourcePoint" />
            <mxPoint x="570" y="120" as="targetPoint" />
          </mxGeometry>
        </mxCell>
        <mxCell id="PRiovcdTmzTmVOK_WKT8-33" value="1..1" style="text;html=1;align=center;verticalAlign=middle;resizable=0;points=[];autosize=1;strokeColor=none;fillColor=none;" parent="WIyWlLk6GJQsqaUBKTNV-1" vertex="1">
          <mxGeometry x="530" y="-32" width="40" height="30" as="geometry" />
        </mxCell>
        <mxCell id="PRiovcdTmzTmVOK_WKT8-34" value="1..1" style="text;html=1;align=center;verticalAlign=middle;resizable=0;points=[];autosize=1;strokeColor=none;fillColor=none;" parent="WIyWlLk6GJQsqaUBKTNV-1" vertex="1">
          <mxGeometry x="530" y="159" width="40" height="30" as="geometry" />
        </mxCell>
        <mxCell id="PRiovcdTmzTmVOK_WKT8-35" value="1..1" style="text;html=1;align=center;verticalAlign=middle;resizable=0;points=[];autosize=1;strokeColor=none;fillColor=none;" parent="WIyWlLk6GJQsqaUBKTNV-1" vertex="1">
          <mxGeometry x="530" y="70" width="40" height="30" as="geometry" />
        </mxCell>
        <mxCell id="PRiovcdTmzTmVOK_WKT8-37" value="" style="endArrow=none;html=1;rounded=0;exitX=1;exitY=0.5;exitDx=0;exitDy=0;entryX=0;entryY=0.5;entryDx=0;entryDy=0;" parent="WIyWlLk6GJQsqaUBKTNV-1" source="PRiovcdTmzTmVOK_WKT8-17" target="PRiovcdTmzTmVOK_WKT8-28" edge="1">
          <mxGeometry relative="1" as="geometry">
            <mxPoint x="523" y="279" as="sourcePoint" />
            <mxPoint x="570" y="279" as="targetPoint" />
          </mxGeometry>
        </mxCell>
        <mxCell id="PRiovcdTmzTmVOK_WKT8-36" value="1..1" style="text;html=1;align=center;verticalAlign=middle;resizable=0;points=[];autosize=1;strokeColor=none;fillColor=none;" parent="WIyWlLk6GJQsqaUBKTNV-1" vertex="1">
          <mxGeometry x="530" y="250" width="40" height="30" as="geometry" />
        </mxCell>
        <mxCell id="PRiovcdTmzTmVOK_WKT8-38" value="1..*" style="text;html=1;align=center;verticalAlign=middle;resizable=0;points=[];autosize=1;strokeColor=none;fillColor=none;" parent="WIyWlLk6GJQsqaUBKTNV-1" vertex="1">
          <mxGeometry x="380" y="60" width="40" height="30" as="geometry" />
        </mxCell>
        <mxCell id="PRiovcdTmzTmVOK_WKT8-39" value="1..*" style="text;html=1;align=center;verticalAlign=middle;resizable=0;points=[];autosize=1;strokeColor=none;fillColor=none;" parent="WIyWlLk6GJQsqaUBKTNV-1" vertex="1">
          <mxGeometry x="380" y="159" width="40" height="30" as="geometry" />
        </mxCell>
        <mxCell id="PRiovcdTmzTmVOK_WKT8-40" value="1..*" style="text;html=1;align=center;verticalAlign=middle;resizable=0;points=[];autosize=1;strokeColor=none;fillColor=none;" parent="WIyWlLk6GJQsqaUBKTNV-1" vertex="1">
          <mxGeometry x="380" y="250" width="40" height="30" as="geometry" />
        </mxCell>
        <mxCell id="PRiovcdTmzTmVOK_WKT8-41" value="1..*" style="text;html=1;align=center;verticalAlign=middle;resizable=0;points=[];autosize=1;strokeColor=none;fillColor=none;" parent="WIyWlLk6GJQsqaUBKTNV-1" vertex="1">
          <mxGeometry x="-90" y="44" width="40" height="30" as="geometry" />
        </mxCell>
        <mxCell id="PRiovcdTmzTmVOK_WKT8-42" value="1..1" style="text;html=1;align=center;verticalAlign=middle;resizable=0;points=[];autosize=1;strokeColor=none;fillColor=none;" parent="WIyWlLk6GJQsqaUBKTNV-1" vertex="1">
          <mxGeometry x="-90" y="-76" width="40" height="30" as="geometry" />
        </mxCell>
        <mxCell id="BVXQ5DlHGLkS4K23p-El-3" value="firstAuthor" style="text;align=left;verticalAlign=top;spacingLeft=4;spacingRight=4;overflow=hidden;rotatable=0;points=[[0,0.5],[1,0.5]];portConstraint=eastwest;rounded=0;shadow=0;html=0;" vertex="1" parent="WIyWlLk6GJQsqaUBKTNV-1">
          <mxGeometry x="-130" y="453" width="110" height="26" as="geometry" />
        </mxCell>
      </root>
    </mxGraphModel>
  </diagram>
</mxfile>
